%TF.GenerationSoftware,KiCad,Pcbnew,(5.1.6)-1*%
%TF.CreationDate,2021-01-17T21:44:29-05:00*%
%TF.ProjectId,comal-80,636f6d61-6c2d-4383-902e-6b696361645f,rev?*%
%TF.SameCoordinates,Original*%
%TF.FileFunction,Legend,Top*%
%TF.FilePolarity,Positive*%
%FSLAX46Y46*%
G04 Gerber Fmt 4.6, Leading zero omitted, Abs format (unit mm)*
G04 Created by KiCad (PCBNEW (5.1.6)-1) date 2021-01-17 21:44:29*
%MOMM*%
%LPD*%
G01*
G04 APERTURE LIST*
%ADD10C,0.120000*%
%ADD11C,0.250000*%
%ADD12C,0.150000*%
%ADD13C,0.300000*%
%ADD14C,0.010000*%
G04 APERTURE END LIST*
D10*
X177400000Y-49600000D02*
X119000000Y-49600000D01*
X177400000Y-135900000D02*
X177400000Y-49600000D01*
D11*
X172141302Y-107689047D02*
X172046064Y-107593809D01*
X171950826Y-107308095D01*
X171950826Y-107117619D01*
X172046064Y-106831904D01*
X172236540Y-106641428D01*
X172427016Y-106546190D01*
X172807968Y-106450952D01*
X173093683Y-106450952D01*
X173474635Y-106546190D01*
X173665111Y-106641428D01*
X173855588Y-106831904D01*
X173950826Y-107117619D01*
X173950826Y-107308095D01*
X173855588Y-107593809D01*
X173760349Y-107689047D01*
X173950826Y-108927142D02*
X173950826Y-109308095D01*
X173855588Y-109498571D01*
X173665111Y-109689047D01*
X173284159Y-109784285D01*
X172617492Y-109784285D01*
X172236540Y-109689047D01*
X172046064Y-109498571D01*
X171950826Y-109308095D01*
X171950826Y-108927142D01*
X172046064Y-108736666D01*
X172236540Y-108546190D01*
X172617492Y-108450952D01*
X173284159Y-108450952D01*
X173665111Y-108546190D01*
X173855588Y-108736666D01*
X173950826Y-108927142D01*
X171950826Y-110641428D02*
X173950826Y-110641428D01*
X172522254Y-111308095D01*
X173950826Y-111974761D01*
X171950826Y-111974761D01*
X172522254Y-112831904D02*
X172522254Y-113784285D01*
X171950826Y-112641428D02*
X173950826Y-113308095D01*
X171950826Y-113974761D01*
X171950826Y-115593809D02*
X171950826Y-114641428D01*
X173950826Y-114641428D01*
X172712730Y-116260476D02*
X172712730Y-117784285D01*
X173093683Y-119022380D02*
X173188921Y-118831904D01*
X173284159Y-118736666D01*
X173474635Y-118641428D01*
X173569873Y-118641428D01*
X173760349Y-118736666D01*
X173855588Y-118831904D01*
X173950826Y-119022380D01*
X173950826Y-119403333D01*
X173855588Y-119593809D01*
X173760349Y-119689047D01*
X173569873Y-119784285D01*
X173474635Y-119784285D01*
X173284159Y-119689047D01*
X173188921Y-119593809D01*
X173093683Y-119403333D01*
X173093683Y-119022380D01*
X172998445Y-118831904D01*
X172903207Y-118736666D01*
X172712730Y-118641428D01*
X172331778Y-118641428D01*
X172141302Y-118736666D01*
X172046064Y-118831904D01*
X171950826Y-119022380D01*
X171950826Y-119403333D01*
X172046064Y-119593809D01*
X172141302Y-119689047D01*
X172331778Y-119784285D01*
X172712730Y-119784285D01*
X172903207Y-119689047D01*
X172998445Y-119593809D01*
X173093683Y-119403333D01*
X173950826Y-121022380D02*
X173950826Y-121212857D01*
X173855588Y-121403333D01*
X173760349Y-121498571D01*
X173569873Y-121593809D01*
X173188921Y-121689047D01*
X172712730Y-121689047D01*
X172331778Y-121593809D01*
X172141302Y-121498571D01*
X172046064Y-121403333D01*
X171950826Y-121212857D01*
X171950826Y-121022380D01*
X172046064Y-120831904D01*
X172141302Y-120736666D01*
X172331778Y-120641428D01*
X172712730Y-120546190D01*
X173188921Y-120546190D01*
X173569873Y-120641428D01*
X173760349Y-120736666D01*
X173855588Y-120831904D01*
X173950826Y-121022380D01*
D12*
X170158571Y-107939047D02*
X170099047Y-107879523D01*
X170039523Y-107700952D01*
X170039523Y-107581904D01*
X170099047Y-107403333D01*
X170218095Y-107284285D01*
X170337142Y-107224761D01*
X170575238Y-107165238D01*
X170753809Y-107165238D01*
X170991904Y-107224761D01*
X171110952Y-107284285D01*
X171230000Y-107403333D01*
X171289523Y-107581904D01*
X171289523Y-107700952D01*
X171230000Y-107879523D01*
X171170476Y-107939047D01*
X170039523Y-108653333D02*
X170099047Y-108534285D01*
X170158571Y-108474761D01*
X170277619Y-108415238D01*
X170634761Y-108415238D01*
X170753809Y-108474761D01*
X170813333Y-108534285D01*
X170872857Y-108653333D01*
X170872857Y-108831904D01*
X170813333Y-108950952D01*
X170753809Y-109010476D01*
X170634761Y-109070000D01*
X170277619Y-109070000D01*
X170158571Y-109010476D01*
X170099047Y-108950952D01*
X170039523Y-108831904D01*
X170039523Y-108653333D01*
X170039523Y-109605714D02*
X170872857Y-109605714D01*
X170753809Y-109605714D02*
X170813333Y-109665238D01*
X170872857Y-109784285D01*
X170872857Y-109962857D01*
X170813333Y-110081904D01*
X170694285Y-110141428D01*
X170039523Y-110141428D01*
X170694285Y-110141428D02*
X170813333Y-110200952D01*
X170872857Y-110320000D01*
X170872857Y-110498571D01*
X170813333Y-110617619D01*
X170694285Y-110677142D01*
X170039523Y-110677142D01*
X170039523Y-111272380D02*
X170872857Y-111272380D01*
X170753809Y-111272380D02*
X170813333Y-111331904D01*
X170872857Y-111450952D01*
X170872857Y-111629523D01*
X170813333Y-111748571D01*
X170694285Y-111808095D01*
X170039523Y-111808095D01*
X170694285Y-111808095D02*
X170813333Y-111867619D01*
X170872857Y-111986666D01*
X170872857Y-112165238D01*
X170813333Y-112284285D01*
X170694285Y-112343809D01*
X170039523Y-112343809D01*
X170039523Y-113117619D02*
X170099047Y-112998571D01*
X170158571Y-112939047D01*
X170277619Y-112879523D01*
X170634761Y-112879523D01*
X170753809Y-112939047D01*
X170813333Y-112998571D01*
X170872857Y-113117619D01*
X170872857Y-113296190D01*
X170813333Y-113415238D01*
X170753809Y-113474761D01*
X170634761Y-113534285D01*
X170277619Y-113534285D01*
X170158571Y-113474761D01*
X170099047Y-113415238D01*
X170039523Y-113296190D01*
X170039523Y-113117619D01*
X170039523Y-114605714D02*
X171289523Y-114605714D01*
X170099047Y-114605714D02*
X170039523Y-114486666D01*
X170039523Y-114248571D01*
X170099047Y-114129523D01*
X170158571Y-114070000D01*
X170277619Y-114010476D01*
X170634761Y-114010476D01*
X170753809Y-114070000D01*
X170813333Y-114129523D01*
X170872857Y-114248571D01*
X170872857Y-114486666D01*
X170813333Y-114605714D01*
X170039523Y-115379523D02*
X170099047Y-115260476D01*
X170158571Y-115200952D01*
X170277619Y-115141428D01*
X170634761Y-115141428D01*
X170753809Y-115200952D01*
X170813333Y-115260476D01*
X170872857Y-115379523D01*
X170872857Y-115558095D01*
X170813333Y-115677142D01*
X170753809Y-115736666D01*
X170634761Y-115796190D01*
X170277619Y-115796190D01*
X170158571Y-115736666D01*
X170099047Y-115677142D01*
X170039523Y-115558095D01*
X170039523Y-115379523D01*
X170039523Y-116331904D02*
X170872857Y-116331904D01*
X170634761Y-116331904D02*
X170753809Y-116391428D01*
X170813333Y-116450952D01*
X170872857Y-116570000D01*
X170872857Y-116689047D01*
X170099047Y-117581904D02*
X170039523Y-117462857D01*
X170039523Y-117224761D01*
X170099047Y-117105714D01*
X170218095Y-117046190D01*
X170694285Y-117046190D01*
X170813333Y-117105714D01*
X170872857Y-117224761D01*
X170872857Y-117462857D01*
X170813333Y-117581904D01*
X170694285Y-117641428D01*
X170575238Y-117641428D01*
X170456190Y-117046190D01*
X171289523Y-119665238D02*
X171289523Y-119427142D01*
X171230000Y-119308095D01*
X171170476Y-119248571D01*
X170991904Y-119129523D01*
X170753809Y-119070000D01*
X170277619Y-119070000D01*
X170158571Y-119129523D01*
X170099047Y-119189047D01*
X170039523Y-119308095D01*
X170039523Y-119546190D01*
X170099047Y-119665238D01*
X170158571Y-119724761D01*
X170277619Y-119784285D01*
X170575238Y-119784285D01*
X170694285Y-119724761D01*
X170753809Y-119665238D01*
X170813333Y-119546190D01*
X170813333Y-119308095D01*
X170753809Y-119189047D01*
X170694285Y-119129523D01*
X170575238Y-119070000D01*
X170872857Y-120855714D02*
X170039523Y-120855714D01*
X171349047Y-120558095D02*
X170456190Y-120260476D01*
X170456190Y-121034285D01*
X169264523Y-108058095D02*
X168371666Y-108058095D01*
X168193095Y-107998571D01*
X168074047Y-107879523D01*
X168014523Y-107700952D01*
X168014523Y-107581904D01*
X168014523Y-108831904D02*
X168074047Y-108712857D01*
X168133571Y-108653333D01*
X168252619Y-108593809D01*
X168609761Y-108593809D01*
X168728809Y-108653333D01*
X168788333Y-108712857D01*
X168847857Y-108831904D01*
X168847857Y-109010476D01*
X168788333Y-109129523D01*
X168728809Y-109189047D01*
X168609761Y-109248571D01*
X168252619Y-109248571D01*
X168133571Y-109189047D01*
X168074047Y-109129523D01*
X168014523Y-109010476D01*
X168014523Y-108831904D01*
X168014523Y-109784285D02*
X169264523Y-109784285D01*
X168014523Y-110320000D02*
X168669285Y-110320000D01*
X168788333Y-110260476D01*
X168847857Y-110141428D01*
X168847857Y-109962857D01*
X168788333Y-109843809D01*
X168728809Y-109784285D01*
X168847857Y-110915238D02*
X168014523Y-110915238D01*
X168728809Y-110915238D02*
X168788333Y-110974761D01*
X168847857Y-111093809D01*
X168847857Y-111272380D01*
X168788333Y-111391428D01*
X168669285Y-111450952D01*
X168014523Y-111450952D01*
X168133571Y-113712857D02*
X168074047Y-113653333D01*
X168014523Y-113474761D01*
X168014523Y-113355714D01*
X168074047Y-113177142D01*
X168193095Y-113058095D01*
X168312142Y-112998571D01*
X168550238Y-112939047D01*
X168728809Y-112939047D01*
X168966904Y-112998571D01*
X169085952Y-113058095D01*
X169205000Y-113177142D01*
X169264523Y-113355714D01*
X169264523Y-113474761D01*
X169205000Y-113653333D01*
X169145476Y-113712857D01*
X168014523Y-114784285D02*
X168669285Y-114784285D01*
X168788333Y-114724761D01*
X168847857Y-114605714D01*
X168847857Y-114367619D01*
X168788333Y-114248571D01*
X168074047Y-114784285D02*
X168014523Y-114665238D01*
X168014523Y-114367619D01*
X168074047Y-114248571D01*
X168193095Y-114189047D01*
X168312142Y-114189047D01*
X168431190Y-114248571D01*
X168490714Y-114367619D01*
X168490714Y-114665238D01*
X168550238Y-114784285D01*
X168014523Y-115379523D02*
X168847857Y-115379523D01*
X168609761Y-115379523D02*
X168728809Y-115439047D01*
X168788333Y-115498571D01*
X168847857Y-115617619D01*
X168847857Y-115736666D01*
X168014523Y-116153333D02*
X168847857Y-116153333D01*
X168728809Y-116153333D02*
X168788333Y-116212857D01*
X168847857Y-116331904D01*
X168847857Y-116510476D01*
X168788333Y-116629523D01*
X168669285Y-116689047D01*
X168014523Y-116689047D01*
X168669285Y-116689047D02*
X168788333Y-116748571D01*
X168847857Y-116867619D01*
X168847857Y-117046190D01*
X168788333Y-117165238D01*
X168669285Y-117224761D01*
X168014523Y-117224761D01*
X168014523Y-117998571D02*
X168074047Y-117879523D01*
X168133571Y-117820000D01*
X168252619Y-117760476D01*
X168609761Y-117760476D01*
X168728809Y-117820000D01*
X168788333Y-117879523D01*
X168847857Y-117998571D01*
X168847857Y-118177142D01*
X168788333Y-118296190D01*
X168728809Y-118355714D01*
X168609761Y-118415238D01*
X168252619Y-118415238D01*
X168133571Y-118355714D01*
X168074047Y-118296190D01*
X168014523Y-118177142D01*
X168014523Y-117998571D01*
X168847857Y-118950952D02*
X168014523Y-118950952D01*
X168728809Y-118950952D02*
X168788333Y-119010476D01*
X168847857Y-119129523D01*
X168847857Y-119308095D01*
X168788333Y-119427142D01*
X168669285Y-119486666D01*
X168014523Y-119486666D01*
X168847857Y-119962857D02*
X168014523Y-120260476D01*
X168847857Y-120558095D02*
X168014523Y-120260476D01*
X167716904Y-120141428D01*
X167657380Y-120081904D01*
X167597857Y-119962857D01*
X165989523Y-107968809D02*
X167239523Y-107968809D01*
X165989523Y-108683095D02*
X166703809Y-108147380D01*
X167239523Y-108683095D02*
X166525238Y-107968809D01*
X166049047Y-109695000D02*
X165989523Y-109575952D01*
X165989523Y-109337857D01*
X166049047Y-109218809D01*
X166168095Y-109159285D01*
X166644285Y-109159285D01*
X166763333Y-109218809D01*
X166822857Y-109337857D01*
X166822857Y-109575952D01*
X166763333Y-109695000D01*
X166644285Y-109754523D01*
X166525238Y-109754523D01*
X166406190Y-109159285D01*
X166822857Y-110290238D02*
X165989523Y-110290238D01*
X166703809Y-110290238D02*
X166763333Y-110349761D01*
X166822857Y-110468809D01*
X166822857Y-110647380D01*
X166763333Y-110766428D01*
X166644285Y-110825952D01*
X165989523Y-110825952D01*
X166049047Y-112314047D02*
X165989523Y-112492619D01*
X165989523Y-112790238D01*
X166049047Y-112909285D01*
X166108571Y-112968809D01*
X166227619Y-113028333D01*
X166346666Y-113028333D01*
X166465714Y-112968809D01*
X166525238Y-112909285D01*
X166584761Y-112790238D01*
X166644285Y-112552142D01*
X166703809Y-112433095D01*
X166763333Y-112373571D01*
X166882380Y-112314047D01*
X167001428Y-112314047D01*
X167120476Y-112373571D01*
X167180000Y-112433095D01*
X167239523Y-112552142D01*
X167239523Y-112849761D01*
X167180000Y-113028333D01*
X165989523Y-113564047D02*
X166822857Y-113564047D01*
X167239523Y-113564047D02*
X167180000Y-113504523D01*
X167120476Y-113564047D01*
X167180000Y-113623571D01*
X167239523Y-113564047D01*
X167120476Y-113564047D01*
X165989523Y-114159285D02*
X166822857Y-114159285D01*
X166703809Y-114159285D02*
X166763333Y-114218809D01*
X166822857Y-114337857D01*
X166822857Y-114516428D01*
X166763333Y-114635476D01*
X166644285Y-114695000D01*
X165989523Y-114695000D01*
X166644285Y-114695000D02*
X166763333Y-114754523D01*
X166822857Y-114873571D01*
X166822857Y-115052142D01*
X166763333Y-115171190D01*
X166644285Y-115230714D01*
X165989523Y-115230714D01*
X165989523Y-115825952D02*
X166822857Y-115825952D01*
X166703809Y-115825952D02*
X166763333Y-115885476D01*
X166822857Y-116004523D01*
X166822857Y-116183095D01*
X166763333Y-116302142D01*
X166644285Y-116361666D01*
X165989523Y-116361666D01*
X166644285Y-116361666D02*
X166763333Y-116421190D01*
X166822857Y-116540238D01*
X166822857Y-116718809D01*
X166763333Y-116837857D01*
X166644285Y-116897380D01*
X165989523Y-116897380D01*
X165989523Y-117671190D02*
X166049047Y-117552142D01*
X166108571Y-117492619D01*
X166227619Y-117433095D01*
X166584761Y-117433095D01*
X166703809Y-117492619D01*
X166763333Y-117552142D01*
X166822857Y-117671190D01*
X166822857Y-117849761D01*
X166763333Y-117968809D01*
X166703809Y-118028333D01*
X166584761Y-118087857D01*
X166227619Y-118087857D01*
X166108571Y-118028333D01*
X166049047Y-117968809D01*
X165989523Y-117849761D01*
X165989523Y-117671190D01*
X166822857Y-118623571D02*
X165989523Y-118623571D01*
X166703809Y-118623571D02*
X166763333Y-118683095D01*
X166822857Y-118802142D01*
X166822857Y-118980714D01*
X166763333Y-119099761D01*
X166644285Y-119159285D01*
X165989523Y-119159285D01*
X166049047Y-119695000D02*
X165989523Y-119814047D01*
X165989523Y-120052142D01*
X166049047Y-120171190D01*
X166168095Y-120230714D01*
X166227619Y-120230714D01*
X166346666Y-120171190D01*
X166406190Y-120052142D01*
X166406190Y-119873571D01*
X166465714Y-119754523D01*
X166584761Y-119695000D01*
X166644285Y-119695000D01*
X166763333Y-119754523D01*
X166822857Y-119873571D01*
X166822857Y-120052142D01*
X166763333Y-120171190D01*
D13*
X159025714Y-92525000D02*
X159740000Y-92525000D01*
X158882857Y-92953571D02*
X159382857Y-91453571D01*
X159882857Y-92953571D01*
X161097142Y-92953571D02*
X160382857Y-92953571D01*
X160382857Y-91453571D01*
X162311428Y-92953571D02*
X161597142Y-92953571D01*
X161597142Y-91453571D01*
X164811428Y-92810714D02*
X164740000Y-92882142D01*
X164525714Y-92953571D01*
X164382857Y-92953571D01*
X164168571Y-92882142D01*
X164025714Y-92739285D01*
X163954285Y-92596428D01*
X163882857Y-92310714D01*
X163882857Y-92096428D01*
X163954285Y-91810714D01*
X164025714Y-91667857D01*
X164168571Y-91525000D01*
X164382857Y-91453571D01*
X164525714Y-91453571D01*
X164740000Y-91525000D01*
X164811428Y-91596428D01*
X165382857Y-92525000D02*
X166097142Y-92525000D01*
X165240000Y-92953571D02*
X165740000Y-91453571D01*
X166240000Y-92953571D01*
X166740000Y-92953571D02*
X166740000Y-91453571D01*
X167311428Y-91453571D01*
X167454285Y-91525000D01*
X167525714Y-91596428D01*
X167597142Y-91739285D01*
X167597142Y-91953571D01*
X167525714Y-92096428D01*
X167454285Y-92167857D01*
X167311428Y-92239285D01*
X166740000Y-92239285D01*
X168168571Y-92882142D02*
X168382857Y-92953571D01*
X168740000Y-92953571D01*
X168882857Y-92882142D01*
X168954285Y-92810714D01*
X169025714Y-92667857D01*
X169025714Y-92525000D01*
X168954285Y-92382142D01*
X168882857Y-92310714D01*
X168740000Y-92239285D01*
X168454285Y-92167857D01*
X168311428Y-92096428D01*
X168240000Y-92025000D01*
X168168571Y-91882142D01*
X168168571Y-91739285D01*
X168240000Y-91596428D01*
X168311428Y-91525000D01*
X168454285Y-91453571D01*
X168811428Y-91453571D01*
X169025714Y-91525000D01*
X170811428Y-92810714D02*
X170882857Y-92882142D01*
X170811428Y-92953571D01*
X170740000Y-92882142D01*
X170811428Y-92810714D01*
X170811428Y-92953571D01*
X172311428Y-92953571D02*
X171454285Y-92953571D01*
X171882857Y-92953571D02*
X171882857Y-91453571D01*
X171740000Y-91667857D01*
X171597142Y-91810714D01*
X171454285Y-91882142D01*
X173597142Y-91953571D02*
X173597142Y-92953571D01*
X172954285Y-91953571D02*
X172954285Y-92739285D01*
X173025714Y-92882142D01*
X173168571Y-92953571D01*
X173382857Y-92953571D01*
X173525714Y-92882142D01*
X173597142Y-92810714D01*
X174811428Y-92167857D02*
X174311428Y-92167857D01*
X174311428Y-92953571D02*
X174311428Y-91453571D01*
X175025714Y-91453571D01*
X122985714Y-91453571D02*
X123842857Y-91453571D01*
X123414285Y-92953571D02*
X123414285Y-91453571D01*
X124342857Y-92953571D02*
X124342857Y-91453571D01*
X124342857Y-92167857D02*
X125200000Y-92167857D01*
X125200000Y-92953571D02*
X125200000Y-91453571D01*
X125914285Y-92953571D02*
X125914285Y-91453571D01*
X126557142Y-92882142D02*
X126771428Y-92953571D01*
X127128571Y-92953571D01*
X127271428Y-92882142D01*
X127342857Y-92810714D01*
X127414285Y-92667857D01*
X127414285Y-92525000D01*
X127342857Y-92382142D01*
X127271428Y-92310714D01*
X127128571Y-92239285D01*
X126842857Y-92167857D01*
X126700000Y-92096428D01*
X126628571Y-92025000D01*
X126557142Y-91882142D01*
X126557142Y-91739285D01*
X126628571Y-91596428D01*
X126700000Y-91525000D01*
X126842857Y-91453571D01*
X127200000Y-91453571D01*
X127414285Y-91525000D01*
X129128571Y-92882142D02*
X129342857Y-92953571D01*
X129700000Y-92953571D01*
X129842857Y-92882142D01*
X129914285Y-92810714D01*
X129985714Y-92667857D01*
X129985714Y-92525000D01*
X129914285Y-92382142D01*
X129842857Y-92310714D01*
X129700000Y-92239285D01*
X129414285Y-92167857D01*
X129271428Y-92096428D01*
X129200000Y-92025000D01*
X129128571Y-91882142D01*
X129128571Y-91739285D01*
X129200000Y-91596428D01*
X129271428Y-91525000D01*
X129414285Y-91453571D01*
X129771428Y-91453571D01*
X129985714Y-91525000D01*
X130628571Y-92953571D02*
X130628571Y-91453571D01*
X131342857Y-92953571D02*
X131342857Y-91453571D01*
X131700000Y-91453571D01*
X131914285Y-91525000D01*
X132057142Y-91667857D01*
X132128571Y-91810714D01*
X132200000Y-92096428D01*
X132200000Y-92310714D01*
X132128571Y-92596428D01*
X132057142Y-92739285D01*
X131914285Y-92882142D01*
X131700000Y-92953571D01*
X131342857Y-92953571D01*
X132842857Y-92167857D02*
X133342857Y-92167857D01*
X133557142Y-92953571D02*
X132842857Y-92953571D01*
X132842857Y-91453571D01*
X133557142Y-91453571D01*
X135342857Y-91453571D02*
X135342857Y-92667857D01*
X135414285Y-92810714D01*
X135485714Y-92882142D01*
X135628571Y-92953571D01*
X135914285Y-92953571D01*
X136057142Y-92882142D01*
X136128571Y-92810714D01*
X136200000Y-92667857D01*
X136200000Y-91453571D01*
X136914285Y-92953571D02*
X136914285Y-91453571D01*
X137485714Y-91453571D01*
X137628571Y-91525000D01*
X137700000Y-91596428D01*
X137771428Y-91739285D01*
X137771428Y-91953571D01*
X137700000Y-92096428D01*
X137628571Y-92167857D01*
X137485714Y-92239285D01*
X136914285Y-92239285D01*
D10*
X119000000Y-135900000D02*
X119000000Y-49600000D01*
X177400000Y-135900000D02*
X119000000Y-135900000D01*
D14*
%TO.C,G\u002A\u002A\u002A*%
G36*
X174661192Y-100067112D02*
G01*
X174615438Y-100514540D01*
X174539998Y-100904293D01*
X174534231Y-100926321D01*
X174486306Y-101106038D01*
X171956011Y-101106038D01*
X172090386Y-100806509D01*
X172242642Y-100399461D01*
X172325208Y-99996800D01*
X172347774Y-99596415D01*
X172330994Y-99237232D01*
X172274726Y-98914087D01*
X172170079Y-98589340D01*
X172039016Y-98289315D01*
X171785335Y-97864190D01*
X171461147Y-97494397D01*
X171077982Y-97185701D01*
X170647372Y-96943868D01*
X170180848Y-96774666D01*
X169689940Y-96683859D01*
X169186180Y-96677214D01*
X168890029Y-96714666D01*
X168384481Y-96852744D01*
X167916735Y-97074773D01*
X167497339Y-97373891D01*
X167136839Y-97743236D01*
X166977181Y-97959238D01*
X166780225Y-98284674D01*
X166643499Y-98593212D01*
X166556695Y-98917105D01*
X166509506Y-99288607D01*
X166499605Y-99453553D01*
X166498102Y-99863143D01*
X166538771Y-100218087D01*
X166627713Y-100552541D01*
X166749922Y-100855212D01*
X166865410Y-101107595D01*
X165585724Y-101094835D01*
X164306038Y-101082076D01*
X164218427Y-100746604D01*
X164176291Y-100525738D01*
X164143331Y-100236316D01*
X164120572Y-99905283D01*
X164109036Y-99559584D01*
X164109748Y-99226165D01*
X164123732Y-98931971D01*
X164142866Y-98757736D01*
X164202651Y-98472002D01*
X164299468Y-98134685D01*
X164422200Y-97777080D01*
X164559732Y-97430483D01*
X164700946Y-97126187D01*
X164763981Y-97009209D01*
X165158277Y-96413680D01*
X165621476Y-95880391D01*
X166146278Y-95414656D01*
X166725381Y-95021788D01*
X167351488Y-94707102D01*
X168017297Y-94475910D01*
X168355660Y-94394750D01*
X168578758Y-94352270D01*
X168775164Y-94324758D01*
X168973626Y-94310375D01*
X169202895Y-94307280D01*
X169491717Y-94313633D01*
X169577736Y-94316522D01*
X170078866Y-94347945D01*
X170517181Y-94409471D01*
X170923134Y-94509109D01*
X171327177Y-94654867D01*
X171759764Y-94854751D01*
X171902076Y-94927731D01*
X172467762Y-95276203D01*
X172987944Y-95702610D01*
X173454531Y-96196640D01*
X173859428Y-96747982D01*
X174194542Y-97346324D01*
X174451780Y-97981354D01*
X174544933Y-98295089D01*
X174619131Y-98675996D01*
X174663159Y-99118117D01*
X174677140Y-99591730D01*
X174661192Y-100067112D01*
G37*
X174661192Y-100067112D02*
X174615438Y-100514540D01*
X174539998Y-100904293D01*
X174534231Y-100926321D01*
X174486306Y-101106038D01*
X171956011Y-101106038D01*
X172090386Y-100806509D01*
X172242642Y-100399461D01*
X172325208Y-99996800D01*
X172347774Y-99596415D01*
X172330994Y-99237232D01*
X172274726Y-98914087D01*
X172170079Y-98589340D01*
X172039016Y-98289315D01*
X171785335Y-97864190D01*
X171461147Y-97494397D01*
X171077982Y-97185701D01*
X170647372Y-96943868D01*
X170180848Y-96774666D01*
X169689940Y-96683859D01*
X169186180Y-96677214D01*
X168890029Y-96714666D01*
X168384481Y-96852744D01*
X167916735Y-97074773D01*
X167497339Y-97373891D01*
X167136839Y-97743236D01*
X166977181Y-97959238D01*
X166780225Y-98284674D01*
X166643499Y-98593212D01*
X166556695Y-98917105D01*
X166509506Y-99288607D01*
X166499605Y-99453553D01*
X166498102Y-99863143D01*
X166538771Y-100218087D01*
X166627713Y-100552541D01*
X166749922Y-100855212D01*
X166865410Y-101107595D01*
X165585724Y-101094835D01*
X164306038Y-101082076D01*
X164218427Y-100746604D01*
X164176291Y-100525738D01*
X164143331Y-100236316D01*
X164120572Y-99905283D01*
X164109036Y-99559584D01*
X164109748Y-99226165D01*
X164123732Y-98931971D01*
X164142866Y-98757736D01*
X164202651Y-98472002D01*
X164299468Y-98134685D01*
X164422200Y-97777080D01*
X164559732Y-97430483D01*
X164700946Y-97126187D01*
X164763981Y-97009209D01*
X165158277Y-96413680D01*
X165621476Y-95880391D01*
X166146278Y-95414656D01*
X166725381Y-95021788D01*
X167351488Y-94707102D01*
X168017297Y-94475910D01*
X168355660Y-94394750D01*
X168578758Y-94352270D01*
X168775164Y-94324758D01*
X168973626Y-94310375D01*
X169202895Y-94307280D01*
X169491717Y-94313633D01*
X169577736Y-94316522D01*
X170078866Y-94347945D01*
X170517181Y-94409471D01*
X170923134Y-94509109D01*
X171327177Y-94654867D01*
X171759764Y-94854751D01*
X171902076Y-94927731D01*
X172467762Y-95276203D01*
X172987944Y-95702610D01*
X173454531Y-96196640D01*
X173859428Y-96747982D01*
X174194542Y-97346324D01*
X174451780Y-97981354D01*
X174544933Y-98295089D01*
X174619131Y-98675996D01*
X174663159Y-99118117D01*
X174677140Y-99591730D01*
X174661192Y-100067112D01*
G36*
X168170032Y-104622672D02*
G01*
X167892854Y-104896712D01*
X167646949Y-105134223D01*
X167439311Y-105328793D01*
X167276931Y-105474008D01*
X167166802Y-105563455D01*
X167115917Y-105590721D01*
X167115018Y-105590315D01*
X167100853Y-105535188D01*
X167088702Y-105396381D01*
X167078543Y-105185615D01*
X167070356Y-104914609D01*
X167064118Y-104595083D01*
X167059810Y-104238758D01*
X167057409Y-103857353D01*
X167056895Y-103462588D01*
X167058246Y-103066183D01*
X167061442Y-102679859D01*
X167066461Y-102315335D01*
X167073282Y-101984331D01*
X167081884Y-101698568D01*
X167092246Y-101469764D01*
X167104346Y-101309641D01*
X167118164Y-101229918D01*
X167122898Y-101223319D01*
X167187591Y-101216825D01*
X167332737Y-101212292D01*
X167542956Y-101209873D01*
X167802869Y-101209723D01*
X168097096Y-101211996D01*
X168165256Y-101212842D01*
X169146415Y-101225849D01*
X169159071Y-102423962D01*
X169171727Y-103622076D01*
X168170032Y-104622672D01*
G37*
X168170032Y-104622672D02*
X167892854Y-104896712D01*
X167646949Y-105134223D01*
X167439311Y-105328793D01*
X167276931Y-105474008D01*
X167166802Y-105563455D01*
X167115917Y-105590721D01*
X167115018Y-105590315D01*
X167100853Y-105535188D01*
X167088702Y-105396381D01*
X167078543Y-105185615D01*
X167070356Y-104914609D01*
X167064118Y-104595083D01*
X167059810Y-104238758D01*
X167057409Y-103857353D01*
X167056895Y-103462588D01*
X167058246Y-103066183D01*
X167061442Y-102679859D01*
X167066461Y-102315335D01*
X167073282Y-101984331D01*
X167081884Y-101698568D01*
X167092246Y-101469764D01*
X167104346Y-101309641D01*
X167118164Y-101229918D01*
X167122898Y-101223319D01*
X167187591Y-101216825D01*
X167332737Y-101212292D01*
X167542956Y-101209873D01*
X167802869Y-101209723D01*
X168097096Y-101211996D01*
X168165256Y-101212842D01*
X169146415Y-101225849D01*
X169159071Y-102423962D01*
X169171727Y-103622076D01*
X168170032Y-104622672D01*
G36*
X171709613Y-103855774D02*
G01*
X171707423Y-104274374D01*
X171703964Y-104652754D01*
X171699391Y-104981454D01*
X171693862Y-105251014D01*
X171687532Y-105451974D01*
X171680557Y-105574875D01*
X171674006Y-105610943D01*
X171632172Y-105578308D01*
X171531600Y-105486023D01*
X171381021Y-105342517D01*
X171189166Y-105156221D01*
X170964765Y-104935564D01*
X170716550Y-104688977D01*
X170643629Y-104616091D01*
X169649623Y-103621239D01*
X169649623Y-102443513D01*
X169650872Y-102116757D01*
X169654382Y-101822229D01*
X169659800Y-101573344D01*
X169666771Y-101383515D01*
X169674941Y-101266158D01*
X169681572Y-101233837D01*
X169737028Y-101224280D01*
X169873667Y-101215864D01*
X170076828Y-101209044D01*
X170331848Y-101204275D01*
X170624064Y-101202010D01*
X170711950Y-101201887D01*
X171710377Y-101201887D01*
X171710377Y-103406415D01*
X171709613Y-103855774D01*
G37*
X171709613Y-103855774D02*
X171707423Y-104274374D01*
X171703964Y-104652754D01*
X171699391Y-104981454D01*
X171693862Y-105251014D01*
X171687532Y-105451974D01*
X171680557Y-105574875D01*
X171674006Y-105610943D01*
X171632172Y-105578308D01*
X171531600Y-105486023D01*
X171381021Y-105342517D01*
X171189166Y-105156221D01*
X170964765Y-104935564D01*
X170716550Y-104688977D01*
X170643629Y-104616091D01*
X169649623Y-103621239D01*
X169649623Y-102443513D01*
X169650872Y-102116757D01*
X169654382Y-101822229D01*
X169659800Y-101573344D01*
X169666771Y-101383515D01*
X169674941Y-101266158D01*
X169681572Y-101233837D01*
X169737028Y-101224280D01*
X169873667Y-101215864D01*
X170076828Y-101209044D01*
X170331848Y-101204275D01*
X170624064Y-101202010D01*
X170711950Y-101201887D01*
X171710377Y-101201887D01*
X171710377Y-103406415D01*
X171709613Y-103855774D01*
D10*
%TO.C,C3*%
X173979000Y-86810000D02*
X172721000Y-86810000D01*
X173979000Y-88650000D02*
X172721000Y-88650000D01*
%TO.C,C2*%
X155469000Y-86810000D02*
X154211000Y-86810000D01*
X155469000Y-88650000D02*
X154211000Y-88650000D01*
%TO.C,C1*%
X136529000Y-86800000D02*
X135271000Y-86800000D01*
X136529000Y-88640000D02*
X135271000Y-88640000D01*
%TO.C,C7*%
X152581000Y-96200000D02*
X153839000Y-96200000D01*
X152581000Y-98040000D02*
X153839000Y-98040000D01*
%TO.C,U3*%
X168010000Y-86240000D02*
X173470000Y-86240000D01*
X173470000Y-86240000D02*
X173470000Y-50560000D01*
X173470000Y-50560000D02*
X160550000Y-50560000D01*
X160550000Y-50560000D02*
X160550000Y-86240000D01*
X160550000Y-86240000D02*
X166010000Y-86240000D01*
X175960000Y-86300000D02*
X175960000Y-50500000D01*
X175960000Y-50500000D02*
X158060000Y-50500000D01*
X158060000Y-50500000D02*
X158060000Y-86300000D01*
X158060000Y-86300000D02*
X175960000Y-86300000D01*
X166010000Y-86240000D02*
G75*
G02*
X168010000Y-86240000I1000000J0D01*
G01*
%TO.C,U6*%
X140965000Y-98560000D02*
X139315000Y-98560000D01*
X139315000Y-98560000D02*
X139315000Y-119000000D01*
X139315000Y-119000000D02*
X144615000Y-119000000D01*
X144615000Y-119000000D02*
X144615000Y-98560000D01*
X144615000Y-98560000D02*
X142965000Y-98560000D01*
X136825000Y-98500000D02*
X136825000Y-119060000D01*
X136825000Y-119060000D02*
X147105000Y-119060000D01*
X147105000Y-119060000D02*
X147105000Y-98500000D01*
X147105000Y-98500000D02*
X136825000Y-98500000D01*
X142965000Y-98560000D02*
G75*
G02*
X140965000Y-98560000I-1000000J0D01*
G01*
%TO.C,U2*%
X149275000Y-86230000D02*
X154735000Y-86230000D01*
X154735000Y-86230000D02*
X154735000Y-50550000D01*
X154735000Y-50550000D02*
X141815000Y-50550000D01*
X141815000Y-50550000D02*
X141815000Y-86230000D01*
X141815000Y-86230000D02*
X147275000Y-86230000D01*
X157225000Y-86290000D02*
X157225000Y-50490000D01*
X157225000Y-50490000D02*
X139325000Y-50490000D01*
X139325000Y-50490000D02*
X139325000Y-86290000D01*
X139325000Y-86290000D02*
X157225000Y-86290000D01*
X147275000Y-86230000D02*
G75*
G02*
X149275000Y-86230000I1000000J0D01*
G01*
%TO.C,U5*%
X154780000Y-98560000D02*
X153130000Y-98560000D01*
X153130000Y-98560000D02*
X153130000Y-119000000D01*
X153130000Y-119000000D02*
X158430000Y-119000000D01*
X158430000Y-119000000D02*
X158430000Y-98560000D01*
X158430000Y-98560000D02*
X156780000Y-98560000D01*
X150640000Y-98500000D02*
X150640000Y-119060000D01*
X150640000Y-119060000D02*
X160920000Y-119060000D01*
X160920000Y-119060000D02*
X160920000Y-98500000D01*
X160920000Y-98500000D02*
X150640000Y-98500000D01*
X156780000Y-98560000D02*
G75*
G02*
X154780000Y-98560000I-1000000J0D01*
G01*
%TO.C,U4*%
X127150000Y-98560000D02*
X125500000Y-98560000D01*
X125500000Y-98560000D02*
X125500000Y-116460000D01*
X125500000Y-116460000D02*
X130800000Y-116460000D01*
X130800000Y-116460000D02*
X130800000Y-98560000D01*
X130800000Y-98560000D02*
X129150000Y-98560000D01*
X123010000Y-98500000D02*
X123010000Y-116520000D01*
X123010000Y-116520000D02*
X133290000Y-116520000D01*
X133290000Y-116520000D02*
X133290000Y-98500000D01*
X133290000Y-98500000D02*
X123010000Y-98500000D01*
X129150000Y-98560000D02*
G75*
G02*
X127150000Y-98560000I-1000000J0D01*
G01*
%TO.C,U1*%
X130540000Y-86230000D02*
X136000000Y-86230000D01*
X136000000Y-86230000D02*
X136000000Y-50550000D01*
X136000000Y-50550000D02*
X123080000Y-50550000D01*
X123080000Y-50550000D02*
X123080000Y-86230000D01*
X123080000Y-86230000D02*
X128540000Y-86230000D01*
X138490000Y-86290000D02*
X138490000Y-50490000D01*
X138490000Y-50490000D02*
X120590000Y-50490000D01*
X120590000Y-50490000D02*
X120590000Y-86290000D01*
X120590000Y-86290000D02*
X138490000Y-86290000D01*
X128540000Y-86230000D02*
G75*
G02*
X130540000Y-86230000I1000000J0D01*
G01*
%TO.C,C6*%
X158979000Y-98040000D02*
X157721000Y-98040000D01*
X158979000Y-96200000D02*
X157721000Y-96200000D01*
%TO.C,C5*%
X143139000Y-98040000D02*
X141881000Y-98040000D01*
X143139000Y-96200000D02*
X141881000Y-96200000D01*
%TO.C,C4*%
X131329000Y-98040000D02*
X130071000Y-98040000D01*
X131329000Y-96200000D02*
X130071000Y-96200000D01*
%TO.C,C3*%
D12*
X173183333Y-90137142D02*
X173135714Y-90184761D01*
X172992857Y-90232380D01*
X172897619Y-90232380D01*
X172754761Y-90184761D01*
X172659523Y-90089523D01*
X172611904Y-89994285D01*
X172564285Y-89803809D01*
X172564285Y-89660952D01*
X172611904Y-89470476D01*
X172659523Y-89375238D01*
X172754761Y-89280000D01*
X172897619Y-89232380D01*
X172992857Y-89232380D01*
X173135714Y-89280000D01*
X173183333Y-89327619D01*
X173516666Y-89232380D02*
X174135714Y-89232380D01*
X173802380Y-89613333D01*
X173945238Y-89613333D01*
X174040476Y-89660952D01*
X174088095Y-89708571D01*
X174135714Y-89803809D01*
X174135714Y-90041904D01*
X174088095Y-90137142D01*
X174040476Y-90184761D01*
X173945238Y-90232380D01*
X173659523Y-90232380D01*
X173564285Y-90184761D01*
X173516666Y-90137142D01*
%TO.C,C2*%
X154673333Y-90137142D02*
X154625714Y-90184761D01*
X154482857Y-90232380D01*
X154387619Y-90232380D01*
X154244761Y-90184761D01*
X154149523Y-90089523D01*
X154101904Y-89994285D01*
X154054285Y-89803809D01*
X154054285Y-89660952D01*
X154101904Y-89470476D01*
X154149523Y-89375238D01*
X154244761Y-89280000D01*
X154387619Y-89232380D01*
X154482857Y-89232380D01*
X154625714Y-89280000D01*
X154673333Y-89327619D01*
X155054285Y-89327619D02*
X155101904Y-89280000D01*
X155197142Y-89232380D01*
X155435238Y-89232380D01*
X155530476Y-89280000D01*
X155578095Y-89327619D01*
X155625714Y-89422857D01*
X155625714Y-89518095D01*
X155578095Y-89660952D01*
X155006666Y-90232380D01*
X155625714Y-90232380D01*
%TO.C,C1*%
X135733333Y-90127142D02*
X135685714Y-90174761D01*
X135542857Y-90222380D01*
X135447619Y-90222380D01*
X135304761Y-90174761D01*
X135209523Y-90079523D01*
X135161904Y-89984285D01*
X135114285Y-89793809D01*
X135114285Y-89650952D01*
X135161904Y-89460476D01*
X135209523Y-89365238D01*
X135304761Y-89270000D01*
X135447619Y-89222380D01*
X135542857Y-89222380D01*
X135685714Y-89270000D01*
X135733333Y-89317619D01*
X136685714Y-90222380D02*
X136114285Y-90222380D01*
X136400000Y-90222380D02*
X136400000Y-89222380D01*
X136304761Y-89365238D01*
X136209523Y-89460476D01*
X136114285Y-89508095D01*
%TO.C,C7*%
X153043333Y-95727142D02*
X152995714Y-95774761D01*
X152852857Y-95822380D01*
X152757619Y-95822380D01*
X152614761Y-95774761D01*
X152519523Y-95679523D01*
X152471904Y-95584285D01*
X152424285Y-95393809D01*
X152424285Y-95250952D01*
X152471904Y-95060476D01*
X152519523Y-94965238D01*
X152614761Y-94870000D01*
X152757619Y-94822380D01*
X152852857Y-94822380D01*
X152995714Y-94870000D01*
X153043333Y-94917619D01*
X153376666Y-94822380D02*
X154043333Y-94822380D01*
X153614761Y-95822380D01*
%TO.C,U3*%
X158048095Y-86952380D02*
X158048095Y-87761904D01*
X158095714Y-87857142D01*
X158143333Y-87904761D01*
X158238571Y-87952380D01*
X158429047Y-87952380D01*
X158524285Y-87904761D01*
X158571904Y-87857142D01*
X158619523Y-87761904D01*
X158619523Y-86952380D01*
X159000476Y-86952380D02*
X159619523Y-86952380D01*
X159286190Y-87333333D01*
X159429047Y-87333333D01*
X159524285Y-87380952D01*
X159571904Y-87428571D01*
X159619523Y-87523809D01*
X159619523Y-87761904D01*
X159571904Y-87857142D01*
X159524285Y-87904761D01*
X159429047Y-87952380D01*
X159143333Y-87952380D01*
X159048095Y-87904761D01*
X159000476Y-87857142D01*
X167239166Y-75456428D02*
X167239166Y-74980238D01*
X167524880Y-75551666D02*
X166524880Y-75218333D01*
X167524880Y-74885000D01*
X166524880Y-74694523D02*
X166524880Y-74123095D01*
X167524880Y-74408809D02*
X166524880Y-74408809D01*
X166620119Y-73837380D02*
X166572500Y-73789761D01*
X166524880Y-73694523D01*
X166524880Y-73456428D01*
X166572500Y-73361190D01*
X166620119Y-73313571D01*
X166715357Y-73265952D01*
X166810595Y-73265952D01*
X166953452Y-73313571D01*
X167524880Y-73885000D01*
X167524880Y-73265952D01*
X166524880Y-72932619D02*
X166524880Y-72265952D01*
X167524880Y-72694523D01*
X167429642Y-71313571D02*
X167477261Y-71361190D01*
X167524880Y-71504047D01*
X167524880Y-71599285D01*
X167477261Y-71742142D01*
X167382023Y-71837380D01*
X167286785Y-71885000D01*
X167096309Y-71932619D01*
X166953452Y-71932619D01*
X166762976Y-71885000D01*
X166667738Y-71837380D01*
X166572500Y-71742142D01*
X166524880Y-71599285D01*
X166524880Y-71504047D01*
X166572500Y-71361190D01*
X166620119Y-71313571D01*
X166620119Y-70932619D02*
X166572500Y-70885000D01*
X166524880Y-70789761D01*
X166524880Y-70551666D01*
X166572500Y-70456428D01*
X166620119Y-70408809D01*
X166715357Y-70361190D01*
X166810595Y-70361190D01*
X166953452Y-70408809D01*
X167524880Y-70980238D01*
X167524880Y-70361190D01*
X166524880Y-69456428D02*
X166524880Y-69932619D01*
X167001071Y-69980238D01*
X166953452Y-69932619D01*
X166905833Y-69837380D01*
X166905833Y-69599285D01*
X166953452Y-69504047D01*
X167001071Y-69456428D01*
X167096309Y-69408809D01*
X167334404Y-69408809D01*
X167429642Y-69456428D01*
X167477261Y-69504047D01*
X167524880Y-69599285D01*
X167524880Y-69837380D01*
X167477261Y-69932619D01*
X167429642Y-69980238D01*
X166524880Y-68551666D02*
X166524880Y-68742142D01*
X166572500Y-68837380D01*
X166620119Y-68885000D01*
X166762976Y-68980238D01*
X166953452Y-69027857D01*
X167334404Y-69027857D01*
X167429642Y-68980238D01*
X167477261Y-68932619D01*
X167524880Y-68837380D01*
X167524880Y-68646904D01*
X167477261Y-68551666D01*
X167429642Y-68504047D01*
X167334404Y-68456428D01*
X167096309Y-68456428D01*
X167001071Y-68504047D01*
X166953452Y-68551666D01*
X166905833Y-68646904D01*
X166905833Y-68837380D01*
X166953452Y-68932619D01*
X167001071Y-68980238D01*
X167096309Y-69027857D01*
X167524880Y-67456428D02*
X167048690Y-67789761D01*
X167524880Y-68027857D02*
X166524880Y-68027857D01*
X166524880Y-67646904D01*
X166572500Y-67551666D01*
X166620119Y-67504047D01*
X166715357Y-67456428D01*
X166858214Y-67456428D01*
X166953452Y-67504047D01*
X167001071Y-67551666D01*
X167048690Y-67646904D01*
X167048690Y-68027857D01*
X167143928Y-67027857D02*
X167143928Y-66265952D01*
X167524880Y-65265952D02*
X167524880Y-65837380D01*
X167524880Y-65551666D02*
X166524880Y-65551666D01*
X166667738Y-65646904D01*
X166762976Y-65742142D01*
X166810595Y-65837380D01*
X166524880Y-64361190D02*
X166524880Y-64837380D01*
X167001071Y-64885000D01*
X166953452Y-64837380D01*
X166905833Y-64742142D01*
X166905833Y-64504047D01*
X166953452Y-64408809D01*
X167001071Y-64361190D01*
X167096309Y-64313571D01*
X167334404Y-64313571D01*
X167429642Y-64361190D01*
X167477261Y-64408809D01*
X167524880Y-64504047D01*
X167524880Y-64742142D01*
X167477261Y-64837380D01*
X167429642Y-64885000D01*
X166524880Y-63694523D02*
X166524880Y-63599285D01*
X166572500Y-63504047D01*
X166620119Y-63456428D01*
X166715357Y-63408809D01*
X166905833Y-63361190D01*
X167143928Y-63361190D01*
X167334404Y-63408809D01*
X167429642Y-63456428D01*
X167477261Y-63504047D01*
X167524880Y-63599285D01*
X167524880Y-63694523D01*
X167477261Y-63789761D01*
X167429642Y-63837380D01*
X167334404Y-63885000D01*
X167143928Y-63932619D01*
X166905833Y-63932619D01*
X166715357Y-63885000D01*
X166620119Y-63837380D01*
X166572500Y-63789761D01*
X166524880Y-63694523D01*
X167524880Y-62932619D02*
X166524880Y-62932619D01*
X166524880Y-62551666D01*
X166572500Y-62456428D01*
X166620119Y-62408809D01*
X166715357Y-62361190D01*
X166858214Y-62361190D01*
X166953452Y-62408809D01*
X167001071Y-62456428D01*
X167048690Y-62551666D01*
X167048690Y-62932619D01*
X166524880Y-61932619D02*
X167334404Y-61932619D01*
X167429642Y-61885000D01*
X167477261Y-61837380D01*
X167524880Y-61742142D01*
X167524880Y-61551666D01*
X167477261Y-61456428D01*
X167429642Y-61408809D01*
X167334404Y-61361190D01*
X166524880Y-61361190D01*
%TO.C,U6*%
X137393095Y-96942380D02*
X137393095Y-97751904D01*
X137440714Y-97847142D01*
X137488333Y-97894761D01*
X137583571Y-97942380D01*
X137774047Y-97942380D01*
X137869285Y-97894761D01*
X137916904Y-97847142D01*
X137964523Y-97751904D01*
X137964523Y-96942380D01*
X138869285Y-96942380D02*
X138678809Y-96942380D01*
X138583571Y-96990000D01*
X138535952Y-97037619D01*
X138440714Y-97180476D01*
X138393095Y-97370952D01*
X138393095Y-97751904D01*
X138440714Y-97847142D01*
X138488333Y-97894761D01*
X138583571Y-97942380D01*
X138774047Y-97942380D01*
X138869285Y-97894761D01*
X138916904Y-97847142D01*
X138964523Y-97751904D01*
X138964523Y-97513809D01*
X138916904Y-97418571D01*
X138869285Y-97370952D01*
X138774047Y-97323333D01*
X138583571Y-97323333D01*
X138488333Y-97370952D01*
X138440714Y-97418571D01*
X138393095Y-97513809D01*
X141339880Y-111909047D02*
X141339880Y-111242380D01*
X142339880Y-111670952D01*
X141673214Y-110432857D02*
X142339880Y-110432857D01*
X141292261Y-110670952D02*
X142006547Y-110909047D01*
X142006547Y-110290000D01*
X142339880Y-109432857D02*
X142339880Y-109909047D01*
X141339880Y-109909047D01*
X142292261Y-109147142D02*
X142339880Y-109004285D01*
X142339880Y-108766190D01*
X142292261Y-108670952D01*
X142244642Y-108623333D01*
X142149404Y-108575714D01*
X142054166Y-108575714D01*
X141958928Y-108623333D01*
X141911309Y-108670952D01*
X141863690Y-108766190D01*
X141816071Y-108956666D01*
X141768452Y-109051904D01*
X141720833Y-109099523D01*
X141625595Y-109147142D01*
X141530357Y-109147142D01*
X141435119Y-109099523D01*
X141387500Y-109051904D01*
X141339880Y-108956666D01*
X141339880Y-108718571D01*
X141387500Y-108575714D01*
X142339880Y-107623333D02*
X142339880Y-108194761D01*
X142339880Y-107909047D02*
X141339880Y-107909047D01*
X141482738Y-108004285D01*
X141577976Y-108099523D01*
X141625595Y-108194761D01*
X141339880Y-107290000D02*
X141339880Y-106670952D01*
X141720833Y-107004285D01*
X141720833Y-106861428D01*
X141768452Y-106766190D01*
X141816071Y-106718571D01*
X141911309Y-106670952D01*
X142149404Y-106670952D01*
X142244642Y-106718571D01*
X142292261Y-106766190D01*
X142339880Y-106861428D01*
X142339880Y-107147142D01*
X142292261Y-107242380D01*
X142244642Y-107290000D01*
X142339880Y-106194761D02*
X142339880Y-106004285D01*
X142292261Y-105909047D01*
X142244642Y-105861428D01*
X142101785Y-105766190D01*
X141911309Y-105718571D01*
X141530357Y-105718571D01*
X141435119Y-105766190D01*
X141387500Y-105813809D01*
X141339880Y-105909047D01*
X141339880Y-106099523D01*
X141387500Y-106194761D01*
X141435119Y-106242380D01*
X141530357Y-106290000D01*
X141768452Y-106290000D01*
X141863690Y-106242380D01*
X141911309Y-106194761D01*
X141958928Y-106099523D01*
X141958928Y-105909047D01*
X141911309Y-105813809D01*
X141863690Y-105766190D01*
X141768452Y-105718571D01*
%TO.C,U2*%
X139868095Y-86762380D02*
X139868095Y-87571904D01*
X139915714Y-87667142D01*
X139963333Y-87714761D01*
X140058571Y-87762380D01*
X140249047Y-87762380D01*
X140344285Y-87714761D01*
X140391904Y-87667142D01*
X140439523Y-87571904D01*
X140439523Y-86762380D01*
X140868095Y-86857619D02*
X140915714Y-86810000D01*
X141010952Y-86762380D01*
X141249047Y-86762380D01*
X141344285Y-86810000D01*
X141391904Y-86857619D01*
X141439523Y-86952857D01*
X141439523Y-87048095D01*
X141391904Y-87190952D01*
X140820476Y-87762380D01*
X141439523Y-87762380D01*
X148504166Y-75446428D02*
X148504166Y-74970238D01*
X148789880Y-75541666D02*
X147789880Y-75208333D01*
X148789880Y-74875000D01*
X147789880Y-74684523D02*
X147789880Y-74113095D01*
X148789880Y-74398809D02*
X147789880Y-74398809D01*
X147885119Y-73827380D02*
X147837500Y-73779761D01*
X147789880Y-73684523D01*
X147789880Y-73446428D01*
X147837500Y-73351190D01*
X147885119Y-73303571D01*
X147980357Y-73255952D01*
X148075595Y-73255952D01*
X148218452Y-73303571D01*
X148789880Y-73875000D01*
X148789880Y-73255952D01*
X147789880Y-72922619D02*
X147789880Y-72255952D01*
X148789880Y-72684523D01*
X148694642Y-71303571D02*
X148742261Y-71351190D01*
X148789880Y-71494047D01*
X148789880Y-71589285D01*
X148742261Y-71732142D01*
X148647023Y-71827380D01*
X148551785Y-71875000D01*
X148361309Y-71922619D01*
X148218452Y-71922619D01*
X148027976Y-71875000D01*
X147932738Y-71827380D01*
X147837500Y-71732142D01*
X147789880Y-71589285D01*
X147789880Y-71494047D01*
X147837500Y-71351190D01*
X147885119Y-71303571D01*
X147885119Y-70922619D02*
X147837500Y-70875000D01*
X147789880Y-70779761D01*
X147789880Y-70541666D01*
X147837500Y-70446428D01*
X147885119Y-70398809D01*
X147980357Y-70351190D01*
X148075595Y-70351190D01*
X148218452Y-70398809D01*
X148789880Y-70970238D01*
X148789880Y-70351190D01*
X147789880Y-69446428D02*
X147789880Y-69922619D01*
X148266071Y-69970238D01*
X148218452Y-69922619D01*
X148170833Y-69827380D01*
X148170833Y-69589285D01*
X148218452Y-69494047D01*
X148266071Y-69446428D01*
X148361309Y-69398809D01*
X148599404Y-69398809D01*
X148694642Y-69446428D01*
X148742261Y-69494047D01*
X148789880Y-69589285D01*
X148789880Y-69827380D01*
X148742261Y-69922619D01*
X148694642Y-69970238D01*
X147789880Y-68541666D02*
X147789880Y-68732142D01*
X147837500Y-68827380D01*
X147885119Y-68875000D01*
X148027976Y-68970238D01*
X148218452Y-69017857D01*
X148599404Y-69017857D01*
X148694642Y-68970238D01*
X148742261Y-68922619D01*
X148789880Y-68827380D01*
X148789880Y-68636904D01*
X148742261Y-68541666D01*
X148694642Y-68494047D01*
X148599404Y-68446428D01*
X148361309Y-68446428D01*
X148266071Y-68494047D01*
X148218452Y-68541666D01*
X148170833Y-68636904D01*
X148170833Y-68827380D01*
X148218452Y-68922619D01*
X148266071Y-68970238D01*
X148361309Y-69017857D01*
X148789880Y-67446428D02*
X148313690Y-67779761D01*
X148789880Y-68017857D02*
X147789880Y-68017857D01*
X147789880Y-67636904D01*
X147837500Y-67541666D01*
X147885119Y-67494047D01*
X147980357Y-67446428D01*
X148123214Y-67446428D01*
X148218452Y-67494047D01*
X148266071Y-67541666D01*
X148313690Y-67636904D01*
X148313690Y-68017857D01*
X148408928Y-67017857D02*
X148408928Y-66255952D01*
X148789880Y-65255952D02*
X148789880Y-65827380D01*
X148789880Y-65541666D02*
X147789880Y-65541666D01*
X147932738Y-65636904D01*
X148027976Y-65732142D01*
X148075595Y-65827380D01*
X147789880Y-64351190D02*
X147789880Y-64827380D01*
X148266071Y-64875000D01*
X148218452Y-64827380D01*
X148170833Y-64732142D01*
X148170833Y-64494047D01*
X148218452Y-64398809D01*
X148266071Y-64351190D01*
X148361309Y-64303571D01*
X148599404Y-64303571D01*
X148694642Y-64351190D01*
X148742261Y-64398809D01*
X148789880Y-64494047D01*
X148789880Y-64732142D01*
X148742261Y-64827380D01*
X148694642Y-64875000D01*
X147789880Y-63684523D02*
X147789880Y-63589285D01*
X147837500Y-63494047D01*
X147885119Y-63446428D01*
X147980357Y-63398809D01*
X148170833Y-63351190D01*
X148408928Y-63351190D01*
X148599404Y-63398809D01*
X148694642Y-63446428D01*
X148742261Y-63494047D01*
X148789880Y-63589285D01*
X148789880Y-63684523D01*
X148742261Y-63779761D01*
X148694642Y-63827380D01*
X148599404Y-63875000D01*
X148408928Y-63922619D01*
X148170833Y-63922619D01*
X147980357Y-63875000D01*
X147885119Y-63827380D01*
X147837500Y-63779761D01*
X147789880Y-63684523D01*
X148789880Y-62922619D02*
X147789880Y-62922619D01*
X147789880Y-62541666D01*
X147837500Y-62446428D01*
X147885119Y-62398809D01*
X147980357Y-62351190D01*
X148123214Y-62351190D01*
X148218452Y-62398809D01*
X148266071Y-62446428D01*
X148313690Y-62541666D01*
X148313690Y-62922619D01*
X147789880Y-61922619D02*
X148599404Y-61922619D01*
X148694642Y-61875000D01*
X148742261Y-61827380D01*
X148789880Y-61732142D01*
X148789880Y-61541666D01*
X148742261Y-61446428D01*
X148694642Y-61398809D01*
X148599404Y-61351190D01*
X147789880Y-61351190D01*
%TO.C,U5*%
X149162380Y-100651904D02*
X149971904Y-100651904D01*
X150067142Y-100604285D01*
X150114761Y-100556666D01*
X150162380Y-100461428D01*
X150162380Y-100270952D01*
X150114761Y-100175714D01*
X150067142Y-100128095D01*
X149971904Y-100080476D01*
X149162380Y-100080476D01*
X149162380Y-99128095D02*
X149162380Y-99604285D01*
X149638571Y-99651904D01*
X149590952Y-99604285D01*
X149543333Y-99509047D01*
X149543333Y-99270952D01*
X149590952Y-99175714D01*
X149638571Y-99128095D01*
X149733809Y-99080476D01*
X149971904Y-99080476D01*
X150067142Y-99128095D01*
X150114761Y-99175714D01*
X150162380Y-99270952D01*
X150162380Y-99509047D01*
X150114761Y-99604285D01*
X150067142Y-99651904D01*
X155154880Y-111909047D02*
X155154880Y-111242380D01*
X156154880Y-111670952D01*
X155488214Y-110432857D02*
X156154880Y-110432857D01*
X155107261Y-110670952D02*
X155821547Y-110909047D01*
X155821547Y-110290000D01*
X156154880Y-109432857D02*
X156154880Y-109909047D01*
X155154880Y-109909047D01*
X156107261Y-109147142D02*
X156154880Y-109004285D01*
X156154880Y-108766190D01*
X156107261Y-108670952D01*
X156059642Y-108623333D01*
X155964404Y-108575714D01*
X155869166Y-108575714D01*
X155773928Y-108623333D01*
X155726309Y-108670952D01*
X155678690Y-108766190D01*
X155631071Y-108956666D01*
X155583452Y-109051904D01*
X155535833Y-109099523D01*
X155440595Y-109147142D01*
X155345357Y-109147142D01*
X155250119Y-109099523D01*
X155202500Y-109051904D01*
X155154880Y-108956666D01*
X155154880Y-108718571D01*
X155202500Y-108575714D01*
X156154880Y-107623333D02*
X156154880Y-108194761D01*
X156154880Y-107909047D02*
X155154880Y-107909047D01*
X155297738Y-108004285D01*
X155392976Y-108099523D01*
X155440595Y-108194761D01*
X155154880Y-106766190D02*
X155154880Y-106956666D01*
X155202500Y-107051904D01*
X155250119Y-107099523D01*
X155392976Y-107194761D01*
X155583452Y-107242380D01*
X155964404Y-107242380D01*
X156059642Y-107194761D01*
X156107261Y-107147142D01*
X156154880Y-107051904D01*
X156154880Y-106861428D01*
X156107261Y-106766190D01*
X156059642Y-106718571D01*
X155964404Y-106670952D01*
X155726309Y-106670952D01*
X155631071Y-106718571D01*
X155583452Y-106766190D01*
X155535833Y-106861428D01*
X155535833Y-107051904D01*
X155583452Y-107147142D01*
X155631071Y-107194761D01*
X155726309Y-107242380D01*
X156154880Y-105718571D02*
X156154880Y-106290000D01*
X156154880Y-106004285D02*
X155154880Y-106004285D01*
X155297738Y-106099523D01*
X155392976Y-106194761D01*
X155440595Y-106290000D01*
%TO.C,U4*%
X123578095Y-96942380D02*
X123578095Y-97751904D01*
X123625714Y-97847142D01*
X123673333Y-97894761D01*
X123768571Y-97942380D01*
X123959047Y-97942380D01*
X124054285Y-97894761D01*
X124101904Y-97847142D01*
X124149523Y-97751904D01*
X124149523Y-96942380D01*
X125054285Y-97275714D02*
X125054285Y-97942380D01*
X124816190Y-96894761D02*
X124578095Y-97609047D01*
X125197142Y-97609047D01*
X127632380Y-110157858D02*
X127632380Y-109491191D01*
X128632380Y-109919762D01*
X127965714Y-108681667D02*
X128632380Y-108681667D01*
X127584761Y-108919762D02*
X128299047Y-109157858D01*
X128299047Y-108538810D01*
X128632380Y-107681667D02*
X128632380Y-108157858D01*
X127632380Y-108157858D01*
X128584761Y-107395953D02*
X128632380Y-107253096D01*
X128632380Y-107015001D01*
X128584761Y-106919762D01*
X128537142Y-106872143D01*
X128441904Y-106824524D01*
X128346666Y-106824524D01*
X128251428Y-106872143D01*
X128203809Y-106919762D01*
X128156190Y-107015001D01*
X128108571Y-107205477D01*
X128060952Y-107300715D01*
X128013333Y-107348334D01*
X127918095Y-107395953D01*
X127822857Y-107395953D01*
X127727619Y-107348334D01*
X127680000Y-107300715D01*
X127632380Y-107205477D01*
X127632380Y-106967381D01*
X127680000Y-106824524D01*
X128060952Y-106253096D02*
X128013333Y-106348334D01*
X127965714Y-106395953D01*
X127870476Y-106443572D01*
X127822857Y-106443572D01*
X127727619Y-106395953D01*
X127680000Y-106348334D01*
X127632380Y-106253096D01*
X127632380Y-106062620D01*
X127680000Y-105967381D01*
X127727619Y-105919762D01*
X127822857Y-105872143D01*
X127870476Y-105872143D01*
X127965714Y-105919762D01*
X128013333Y-105967381D01*
X128060952Y-106062620D01*
X128060952Y-106253096D01*
X128108571Y-106348334D01*
X128156190Y-106395953D01*
X128251428Y-106443572D01*
X128441904Y-106443572D01*
X128537142Y-106395953D01*
X128584761Y-106348334D01*
X128632380Y-106253096D01*
X128632380Y-106062620D01*
X128584761Y-105967381D01*
X128537142Y-105919762D01*
X128441904Y-105872143D01*
X128251428Y-105872143D01*
X128156190Y-105919762D01*
X128108571Y-105967381D01*
X128060952Y-106062620D01*
X127632380Y-105015001D02*
X127632380Y-105205477D01*
X127680000Y-105300715D01*
X127727619Y-105348334D01*
X127870476Y-105443572D01*
X128060952Y-105491191D01*
X128441904Y-105491191D01*
X128537142Y-105443572D01*
X128584761Y-105395953D01*
X128632380Y-105300715D01*
X128632380Y-105110239D01*
X128584761Y-105015001D01*
X128537142Y-104967381D01*
X128441904Y-104919762D01*
X128203809Y-104919762D01*
X128108571Y-104967381D01*
X128060952Y-105015001D01*
X128013333Y-105110239D01*
X128013333Y-105300715D01*
X128060952Y-105395953D01*
X128108571Y-105443572D01*
X128203809Y-105491191D01*
%TO.C,U1*%
X120938095Y-87032380D02*
X120938095Y-87841904D01*
X120985714Y-87937142D01*
X121033333Y-87984761D01*
X121128571Y-88032380D01*
X121319047Y-88032380D01*
X121414285Y-87984761D01*
X121461904Y-87937142D01*
X121509523Y-87841904D01*
X121509523Y-87032380D01*
X122509523Y-88032380D02*
X121938095Y-88032380D01*
X122223809Y-88032380D02*
X122223809Y-87032380D01*
X122128571Y-87175238D01*
X122033333Y-87270476D01*
X121938095Y-87318095D01*
X129769166Y-75446428D02*
X129769166Y-74970238D01*
X130054880Y-75541666D02*
X129054880Y-75208333D01*
X130054880Y-74875000D01*
X129054880Y-74684523D02*
X129054880Y-74113095D01*
X130054880Y-74398809D02*
X129054880Y-74398809D01*
X129150119Y-73827380D02*
X129102500Y-73779761D01*
X129054880Y-73684523D01*
X129054880Y-73446428D01*
X129102500Y-73351190D01*
X129150119Y-73303571D01*
X129245357Y-73255952D01*
X129340595Y-73255952D01*
X129483452Y-73303571D01*
X130054880Y-73875000D01*
X130054880Y-73255952D01*
X129054880Y-72922619D02*
X129054880Y-72255952D01*
X130054880Y-72684523D01*
X129959642Y-71303571D02*
X130007261Y-71351190D01*
X130054880Y-71494047D01*
X130054880Y-71589285D01*
X130007261Y-71732142D01*
X129912023Y-71827380D01*
X129816785Y-71875000D01*
X129626309Y-71922619D01*
X129483452Y-71922619D01*
X129292976Y-71875000D01*
X129197738Y-71827380D01*
X129102500Y-71732142D01*
X129054880Y-71589285D01*
X129054880Y-71494047D01*
X129102500Y-71351190D01*
X129150119Y-71303571D01*
X129150119Y-70922619D02*
X129102500Y-70875000D01*
X129054880Y-70779761D01*
X129054880Y-70541666D01*
X129102500Y-70446428D01*
X129150119Y-70398809D01*
X129245357Y-70351190D01*
X129340595Y-70351190D01*
X129483452Y-70398809D01*
X130054880Y-70970238D01*
X130054880Y-70351190D01*
X129054880Y-69446428D02*
X129054880Y-69922619D01*
X129531071Y-69970238D01*
X129483452Y-69922619D01*
X129435833Y-69827380D01*
X129435833Y-69589285D01*
X129483452Y-69494047D01*
X129531071Y-69446428D01*
X129626309Y-69398809D01*
X129864404Y-69398809D01*
X129959642Y-69446428D01*
X130007261Y-69494047D01*
X130054880Y-69589285D01*
X130054880Y-69827380D01*
X130007261Y-69922619D01*
X129959642Y-69970238D01*
X129054880Y-68541666D02*
X129054880Y-68732142D01*
X129102500Y-68827380D01*
X129150119Y-68875000D01*
X129292976Y-68970238D01*
X129483452Y-69017857D01*
X129864404Y-69017857D01*
X129959642Y-68970238D01*
X130007261Y-68922619D01*
X130054880Y-68827380D01*
X130054880Y-68636904D01*
X130007261Y-68541666D01*
X129959642Y-68494047D01*
X129864404Y-68446428D01*
X129626309Y-68446428D01*
X129531071Y-68494047D01*
X129483452Y-68541666D01*
X129435833Y-68636904D01*
X129435833Y-68827380D01*
X129483452Y-68922619D01*
X129531071Y-68970238D01*
X129626309Y-69017857D01*
X130054880Y-67446428D02*
X129578690Y-67779761D01*
X130054880Y-68017857D02*
X129054880Y-68017857D01*
X129054880Y-67636904D01*
X129102500Y-67541666D01*
X129150119Y-67494047D01*
X129245357Y-67446428D01*
X129388214Y-67446428D01*
X129483452Y-67494047D01*
X129531071Y-67541666D01*
X129578690Y-67636904D01*
X129578690Y-68017857D01*
X129673928Y-67017857D02*
X129673928Y-66255952D01*
X130054880Y-65255952D02*
X130054880Y-65827380D01*
X130054880Y-65541666D02*
X129054880Y-65541666D01*
X129197738Y-65636904D01*
X129292976Y-65732142D01*
X129340595Y-65827380D01*
X129054880Y-64351190D02*
X129054880Y-64827380D01*
X129531071Y-64875000D01*
X129483452Y-64827380D01*
X129435833Y-64732142D01*
X129435833Y-64494047D01*
X129483452Y-64398809D01*
X129531071Y-64351190D01*
X129626309Y-64303571D01*
X129864404Y-64303571D01*
X129959642Y-64351190D01*
X130007261Y-64398809D01*
X130054880Y-64494047D01*
X130054880Y-64732142D01*
X130007261Y-64827380D01*
X129959642Y-64875000D01*
X129054880Y-63684523D02*
X129054880Y-63589285D01*
X129102500Y-63494047D01*
X129150119Y-63446428D01*
X129245357Y-63398809D01*
X129435833Y-63351190D01*
X129673928Y-63351190D01*
X129864404Y-63398809D01*
X129959642Y-63446428D01*
X130007261Y-63494047D01*
X130054880Y-63589285D01*
X130054880Y-63684523D01*
X130007261Y-63779761D01*
X129959642Y-63827380D01*
X129864404Y-63875000D01*
X129673928Y-63922619D01*
X129435833Y-63922619D01*
X129245357Y-63875000D01*
X129150119Y-63827380D01*
X129102500Y-63779761D01*
X129054880Y-63684523D01*
X130054880Y-62922619D02*
X129054880Y-62922619D01*
X129054880Y-62541666D01*
X129102500Y-62446428D01*
X129150119Y-62398809D01*
X129245357Y-62351190D01*
X129388214Y-62351190D01*
X129483452Y-62398809D01*
X129531071Y-62446428D01*
X129578690Y-62541666D01*
X129578690Y-62922619D01*
X129054880Y-61922619D02*
X129864404Y-61922619D01*
X129959642Y-61875000D01*
X130007261Y-61827380D01*
X130054880Y-61732142D01*
X130054880Y-61541666D01*
X130007261Y-61446428D01*
X129959642Y-61398809D01*
X129864404Y-61351190D01*
X129054880Y-61351190D01*
%TO.C,C6*%
X158183333Y-95667142D02*
X158135714Y-95714761D01*
X157992857Y-95762380D01*
X157897619Y-95762380D01*
X157754761Y-95714761D01*
X157659523Y-95619523D01*
X157611904Y-95524285D01*
X157564285Y-95333809D01*
X157564285Y-95190952D01*
X157611904Y-95000476D01*
X157659523Y-94905238D01*
X157754761Y-94810000D01*
X157897619Y-94762380D01*
X157992857Y-94762380D01*
X158135714Y-94810000D01*
X158183333Y-94857619D01*
X159040476Y-94762380D02*
X158850000Y-94762380D01*
X158754761Y-94810000D01*
X158707142Y-94857619D01*
X158611904Y-95000476D01*
X158564285Y-95190952D01*
X158564285Y-95571904D01*
X158611904Y-95667142D01*
X158659523Y-95714761D01*
X158754761Y-95762380D01*
X158945238Y-95762380D01*
X159040476Y-95714761D01*
X159088095Y-95667142D01*
X159135714Y-95571904D01*
X159135714Y-95333809D01*
X159088095Y-95238571D01*
X159040476Y-95190952D01*
X158945238Y-95143333D01*
X158754761Y-95143333D01*
X158659523Y-95190952D01*
X158611904Y-95238571D01*
X158564285Y-95333809D01*
%TO.C,C5*%
X142343333Y-95667142D02*
X142295714Y-95714761D01*
X142152857Y-95762380D01*
X142057619Y-95762380D01*
X141914761Y-95714761D01*
X141819523Y-95619523D01*
X141771904Y-95524285D01*
X141724285Y-95333809D01*
X141724285Y-95190952D01*
X141771904Y-95000476D01*
X141819523Y-94905238D01*
X141914761Y-94810000D01*
X142057619Y-94762380D01*
X142152857Y-94762380D01*
X142295714Y-94810000D01*
X142343333Y-94857619D01*
X143248095Y-94762380D02*
X142771904Y-94762380D01*
X142724285Y-95238571D01*
X142771904Y-95190952D01*
X142867142Y-95143333D01*
X143105238Y-95143333D01*
X143200476Y-95190952D01*
X143248095Y-95238571D01*
X143295714Y-95333809D01*
X143295714Y-95571904D01*
X143248095Y-95667142D01*
X143200476Y-95714761D01*
X143105238Y-95762380D01*
X142867142Y-95762380D01*
X142771904Y-95714761D01*
X142724285Y-95667142D01*
%TO.C,C4*%
X130533333Y-95667142D02*
X130485714Y-95714761D01*
X130342857Y-95762380D01*
X130247619Y-95762380D01*
X130104761Y-95714761D01*
X130009523Y-95619523D01*
X129961904Y-95524285D01*
X129914285Y-95333809D01*
X129914285Y-95190952D01*
X129961904Y-95000476D01*
X130009523Y-94905238D01*
X130104761Y-94810000D01*
X130247619Y-94762380D01*
X130342857Y-94762380D01*
X130485714Y-94810000D01*
X130533333Y-94857619D01*
X131390476Y-95095714D02*
X131390476Y-95762380D01*
X131152380Y-94714761D02*
X130914285Y-95429047D01*
X131533333Y-95429047D01*
%TD*%
M02*
