M48
INCH,TZ
T1C0.0157
T2C0.0315
T3C0.1969
%
G90
G05
T1
X47240Y-20913
X47476Y-34673
X47859Y-49940
X49028Y-49417
X50386Y-43331
X50433Y-41831
X51260Y-47217
X53346Y-43323
X53433Y-42209
X55051Y-48079
X55172Y-49471
X55248Y-48756
X55864Y-47314
X56150Y-47957
X56676Y-48652
X57634Y-48539
X58150Y-44283
X58354Y-34543
X58602Y-37898
X60862Y-46803
X61035Y-36488
X61846Y-48709
X62673Y-49334
X63033Y-36561
X63394Y-47194
X65193Y-49835
X65482Y-46108
X65774Y-48385
X66189Y-48906
X66850Y-44667
X67173Y-48835
X67335Y-49492
X67429Y-47795
X67882Y-49628
X68831Y-49783
T2
X59831Y-39327
X59831Y-40327
X59831Y-41327
X59831Y-42327
X59831Y-43327
X59831Y-44327
X59831Y-45327
X59831Y-46327
X62831Y-39327
X62831Y-40327
X62831Y-41327
X62831Y-42327
X62831Y-43327
X62831Y-44327
X62831Y-45327
X62831Y-46327
X59827Y-38236
X60811Y-38236
X60469Y-34539
X61453Y-34539
X53012Y-34535
X53996Y-34535
X50965Y-38236
X51949Y-38236
X55376Y-20425
X55376Y-21425
X55376Y-22425
X55376Y-23425
X55376Y-24425
X55376Y-25425
X55376Y-26425
X55376Y-27425
X55376Y-28425
X55376Y-29425
X55376Y-30425
X55376Y-31425
X55376Y-32425
X55376Y-33425
X61376Y-20425
X61376Y-21425
X61376Y-22425
X61376Y-23425
X61376Y-24425
X61376Y-25425
X61376Y-26425
X61376Y-27425
X61376Y-28425
X61376Y-29425
X61376Y-30425
X61376Y-31425
X61376Y-32425
X61376Y-33425
X48000Y-20425
X48000Y-21425
X48000Y-22425
X48000Y-23425
X48000Y-24425
X48000Y-25425
X48000Y-26425
X48000Y-27425
X48000Y-28425
X48000Y-29425
X48000Y-30425
X48000Y-31425
X48000Y-32425
X48000Y-33425
X54000Y-20425
X54000Y-21425
X54000Y-22425
X54000Y-23425
X54000Y-24425
X54000Y-25425
X54000Y-26425
X54000Y-27425
X54000Y-28425
X54000Y-29425
X54000Y-30425
X54000Y-31425
X54000Y-32425
X54000Y-33425
X67756Y-34539
X68740Y-34539
X54392Y-39327
X54392Y-40327
X54392Y-41327
X54392Y-42327
X54392Y-43327
X54392Y-44327
X54392Y-45327
X54392Y-46327
X57392Y-39327
X57392Y-40327
X57392Y-41327
X57392Y-42327
X57392Y-43327
X57392Y-44327
X57392Y-45327
X57392Y-46327
X62752Y-20429
X62752Y-21429
X62752Y-22429
X62752Y-23429
X62752Y-24429
X62752Y-25429
X62752Y-26429
X62752Y-27429
X62752Y-28429
X62752Y-29429
X62752Y-30429
X62752Y-31429
X62752Y-32429
X62752Y-33429
X68752Y-20429
X68752Y-21429
X68752Y-22429
X68752Y-23429
X68752Y-24429
X68752Y-25429
X68752Y-26429
X68752Y-27429
X68752Y-28429
X68752Y-29429
X68752Y-30429
X68752Y-31429
X68752Y-32429
X68752Y-33429
X61850Y-38236
X62835Y-38236
X55614Y-38236
X56598Y-38236
X48953Y-39327
X48953Y-40327
X48953Y-41327
X48953Y-42327
X48953Y-43327
X48953Y-44327
X48953Y-45327
X51953Y-39327
X51953Y-40327
X51953Y-41327
X51953Y-42327
X51953Y-43327
X51953Y-44327
X51953Y-45327
T3
X58316Y-36181
T0
M30
